HIERARCHY
ROOT root     
{
	OFFSET 0.0000 0.0000 0.0000
	CHANNELS 6 Xposition Yposition Zposition Zrotation Yrotation Xrotation
	JOINT pelvis   
	{
		OFFSET 0.0000 0.0000 0.0000
		CHANNELS 3 Zrotation Yrotation Xrotation
		JOINT thorax   
		{
			OFFSET 0.0000 23.0750 -5.0000
			CHANNELS 3 Zrotation Yrotation Xrotation
			JOINT rclavicle
			{
				OFFSET 0.0000 28.0009 0.0000
				CHANNELS 3 Zrotation Yrotation Xrotation
				JOINT rhumerus 
				{
					OFFSET -18.5725 5.5939 0.0000
					CHANNELS 3 Zrotation Yrotation Xrotation
					JOINT rradius  
					{
						OFFSET -24.8459 0.0000 0.0000
						CHANNELS 3 Zrotation Yrotation Xrotation
						JOINT rhand    
						{
							OFFSET -24.5477 0.0000 0.0000
							CHANNELS 3 Zrotation Yrotation Xrotation
							End Site
							{
								OFFSET -8.1826 0.0000 0.0000
							}
						}
					}
				}
			}
			JOINT lclavicle
			{
				OFFSET 0.0000 28.0009 0.0000
				CHANNELS 3 Zrotation Yrotation Xrotation
				JOINT lhumerus 
				{
					OFFSET 18.5725 5.5939 0.0000
					CHANNELS 3 Zrotation Yrotation Xrotation
					JOINT lradius  
					{
						OFFSET 24.8459 0.0000 0.0000
						CHANNELS 3 Zrotation Yrotation Xrotation
						JOINT lhand    
						{
							OFFSET 24.5477 0.0000 0.0000
							CHANNELS 3 Zrotation Yrotation Xrotation
							End Site
							{
								OFFSET 8.1826 0.0000 0.0000
							}
						}
					}
				}
			}
			JOINT head     
			{
				OFFSET 0.0000 35.2030 0.0000
				CHANNELS 3 Zrotation Yrotation Xrotation
				End Site
				{
					OFFSET 0.0000 11.7343 0.0000
				}
			}
		}
		JOINT rfemur   
		{
			OFFSET -8.2817 0.0000 0.0000
			CHANNELS 3 Zrotation Yrotation Xrotation
			JOINT rtibia   
			{
				OFFSET 0.0000 -43.3627 0.0000
				CHANNELS 3 Zrotation Yrotation Xrotation
				JOINT rfoot    
				{
					OFFSET 0.0000 -38.2947 0.0000
					CHANNELS 3 Zrotation Yrotation Xrotation
					JOINT rtoes    
					{
						OFFSET 0.0000 0.0000 16.6054
						CHANNELS 3 Zrotation Yrotation Xrotation
						End Site
						{
							OFFSET 0.0000 0.0000 5.5351
						}
					}
				}
			}
		}
		JOINT lfemur   
		{
			OFFSET 8.2817 0.0000 0.0000
			CHANNELS 3 Zrotation Yrotation Xrotation
			JOINT ltibia   
			{
				OFFSET 0.0000 -43.3627 0.0000
				CHANNELS 3 Zrotation Yrotation Xrotation
				JOINT lfoot    
				{
					OFFSET 0.0000 -38.2947 0.0000
					CHANNELS 3 Zrotation Yrotation Xrotation
					JOINT ltoes    
					{
						OFFSET 0.0000 0.0000 16.6054
						CHANNELS 3 Zrotation Yrotation Xrotation
						End Site
						{
							OFFSET 0.0000 0.0000 5.5351
						}
					}
				}
			}
		}
	}
}
MOTION
Frames: 12
Frame Time: .0333333
29.196 86.211 4.5232 -175.037 -62.4863 -174.424 0 -0 0 4.05492 2.56728 -15.5722 15.3384 2.16523 8.24702e-06 66.7181 49.9315 6.12172 -180 53.0913 -180 -19.9433 26.2923 -4.70282 -10.7741 6.55838 -7.21282e-06 -21.0237 -51.4806 -41.8072 -180 -49.6557 180 28.5908 -20.7553 -5.34344 4.1813 12.6403 11.8237 -3.27211 9.55242 -10.2675 -0 -0 1.07739 6.49514e-06 9.1607 11.2766 1.80609 -1.18389e-05 -37.475 0.495687 32.7259 -6.60423 -0 -0 9.41052 8.99001e-06 17.0792 1.55153 0.476603 1.54265e-06 -25.6827 
29.256 86.219 4.5484 -175.032 -61.7809 -174.203 0 -0 0 4.19936 2.40877 -15.6977 15.3046 2.11056 5.46827e-06 66.8031 50.0816 6.23789 180 53.1836 180 -19.9952 26.2555 -4.70847 -10.4024 6.5047 9.09933e-06 -19.7515 -51.2892 -43.3115 -180 -50.4633 180 29.0215 -21.1219 -5.52521 4.32781 12.8833 11.7377 -3.34077 9.89381 -10.7876 -0 -0 1.36046 -4.30242e-07 9.51214 11.3101 1.88221 5.7431e-06 -37.5864 0.320256 33.1475 -6.83741 -0 -0 9.43857 -4.58777e-06 17.3122 1.53391 0.478094 1.97767e-06 -25.5497 
29.321 86.228 4.5779 -175.03 -61.0933 -173.978 0 -0 0 4.3411 2.18548 -15.8074 15.2805 2.05845 1.60889e-05 66.8781 50.2604 6.35087 180 53.2836 180 -20.0696 26.2049 -4.71695 -10.0122 6.42748 1.2875e-06 -18.3619 -51.0512 -44.929 -180 -51.4716 180 29.5179 -21.5218 -5.73267 4.48753 13.1438 11.6137 -3.41274 10.2239 -11.3041 -0 -0 1.63092 5.71534e-07 9.85129 11.3524 1.95764 -1.16076e-05 -37.6932 0.13486 33.5901 -7.07056 -0 -0 9.44217 5.5283e-06 17.5011 1.52839 0.481909 3.08759e-06 -25.4279 
29.392 86.237 4.6114 -175.033 -60.4312 -173.749 0 -0 0 4.47618 1.8891 -15.9009 15.2673 2.00906 7.20155e-06 66.9436 50.4671 6.45435 180 53.3975 180 -20.1611 26.1421 -4.72714 -9.58818 6.32123 6.79776e-06 -16.8864 -50.7575 -46.6462 -180 -52.6842 180 30.0607 -21.9367 -5.95798 4.66801 13.4203 11.4457 -3.4875 10.5402 -11.8142 -0 -0 1.88594 -3.314e-06 10.1711 11.4017 2.03117 -2.01555e-05 -37.791 -0.0611387 34.0481 -7.30657 -0 -0 9.4242 8.84838e-06 17.645 1.53413 0.4879 1.74092e-06 -25.3186 
29.469 86.246 4.6485 -175.039 -59.8018 -173.52 0 -0 0 4.60172 1.51212 -15.9753 15.2708 1.96211 -4.32834e-06 66.9961 50.6996 6.54668 -180 53.5192 -180 -20.2675 26.0684 -4.73864 -9.1224 6.1882 2.49798e-06 -15.352 -50.4083 -48.4573 -180 -54.1107 180 30.6295 -22.3423 -6.19104 4.87603 13.7101 11.229 -3.56371 10.8397 -12.3124 -0 -0 2.12212 7.3714e-06 10.4653 11.4584 2.10149 -1.16391e-05 -37.8797 -0.265275 34.5114 -7.54494 -0 -0 9.38753 -1.59956e-06 17.7437 1.54974 0.495808 1.35202e-06 -25.2236 
29.553 86.255 4.6887 -175.05 -59.2131 -173.293 0 -0 0 4.71508 1.0493 -16.0276 15.2949 1.91672 1.53282e-05 67.0349 50.9594 6.62687 180 53.6532 180 -20.3841 25.9824 -4.75033 -8.60599 6.03275 8.37362e-06 -13.7964 -50.018 -50.3461 -180 -55.7581 180 31.2045 -22.718 -6.42169 5.11733 14.0136 10.9614 -3.63982 11.1188 -12.7931 -0 -0 2.33693 1.85047e-06 10.729 11.5223 2.16743 -3.07014e-05 -37.962 -0.47556 34.975 -7.78503 -0 -0 9.33475 3.55313e-06 17.7982 1.57574 0.505808 -1.18277e-06 -25.1438 
29.643 86.264 4.7314 -175.063 -58.6716 -173.068 0 -0 0 4.81431 0.498088 -16.0579 15.3401 1.87207 -5.3277e-06 67.0647 51.2395 6.69696 -180 53.7951 -180 -20.5067 25.8882 -4.76152 -8.03307 5.86216 2.66097e-08 -12.2599 -49.6003 -52.2926 -180 -57.643 180 31.765 -23.0514 -6.64133 5.39565 14.3249 10.6451 -3.71424 11.375 -13.2544 -0 -0 2.52841 -4.9166e-05 10.9596 11.5937 2.22886 9.79758e-06 -38.0445 -0.690793 35.4307 -8.02742 -0 -0 9.26697 -1.48102e-06 17.8111 1.61218 0.517907 1.31294e-06 -25.0804 
29.739 86.273 4.776 -175.08 -58.1809 -172.848 0 -0 0 4.89803 -0.140487 -16.0667 15.4081 1.82735 6.77804e-06 67.087 51.5354 6.75611 180 53.9485 180 -20.629 25.7861 -4.77093 -7.39737 5.68162 4.41376e-06 -10.7876 -49.1725 -54.2768 -180 -59.7766 180 32.2976 -23.3335 -6.84322 5.71196 14.6423 10.2869 -3.78566 11.6048 -13.6932 -0 -0 2.69535 -2.96218e-05 11.1563 11.6745 2.28532 5.6104e-07 -38.1304 -0.908254 35.8746 -8.26984 -0 -0 9.1855 5.24013e-06 17.7833 1.6598 0.532294 -3.92281e-06 -25.0316 
29.842 86.284 4.8224 -175.099 -57.7441 -172.633 0 -0 0 4.96548 -0.862392 -16.0571 15.5004 1.78106 -8.71301e-06 67.1033 51.84 6.80904 180 54.1081 180 -20.7476 25.6792 -4.7785 -6.70062 5.49802 -6.54757e-06 -9.41002 -48.7566 -56.2753 -180 -62.1825 180 32.794 -23.5588 -7.02302 6.06403 14.9602 9.89861 -3.85291 11.8055 -14.1063 -0 -0 2.83738 -2.1278e-05 11.3196 11.7653 2.33729 7.26556e-06 -38.2299 -1.12807 36.3017 -8.5134 -0 -0 9.09071 9.7104e-07 17.7197 1.72008 0.549495 -2.16578e-07 -24.9979 
29.95 86.295 4.8698 -175.122 -57.3593 -172.427 0 -0 0 5.01882 -1.6607 -16.0281 15.6149 1.73225 -1.68699e-05 67.1185 52.1469 6.85702 180 54.2768 180 -20.856 25.5709 -4.7829 -5.9498 5.31627 2.14059e-06 -8.14943 -48.375 -58.264 -180 -64.8866 180 33.2499 -23.7271 -7.17832 6.4448 15.2773 9.49355 -3.91446 11.9748 -14.4924 -0 -0 2.95345 -4.87552e-06 11.452 11.8672 2.38536 5.67457e-07 -38.3484 -1.34622 36.7097 -8.7527 -0 -0 8.98126 4.04077e-06 17.6224 1.79431 0.569891 -2.2248e-06 -24.9777 
30.063 86.308 4.9177 -175.145 -57.0332 -172.231 0 -0 0 5.05989 -2.526 -15.9836 15.7515 1.67919 -5.09971e-06 67.1366 52.4513 6.90921 -180 54.4544 -180 -20.951 25.4605 -4.78375 -5.15684 5.13762 -7.02506e-06 -7.01237 -48.0422 -60.2293 -180 -67.9194 180 33.6689 -23.8361 -7.3081 6.84629 15.59 9.08989 -3.96864 12.1094 -14.8466 -0 -0 3.04388 -8.60014e-06 11.5567 11.9805 2.43049 5.32507e-06 -38.4911 -1.56053 37.0934 -8.98416 -0 -0 8.85573 -2.73549e-06 17.4961 1.88436 0.593906 -3.19733e-06 -24.9688 
30.178 86.324 4.9656 -175.169 -56.7614 -172.051 0 -0 0 5.09172 -3.44687 -15.9247 15.9065 1.61783 -3.72804e-07 67.1589 52.7474 6.97014 180 54.6377 180 -21.0332 25.3494 -4.78139 -4.34509 4.96451 -3.56059e-06 -5.96841 -47.7757 -62.1666 -180 -71.3269 180 34.0428 -23.8965 -7.41327 7.25723 15.8953 8.70437 -4.01384 12.2087 -15.1658 -0 -0 3.10858 -6.88296e-05 11.6379 12.1055 2.47322 -1.50802e-06 -38.6516 -1.76621 37.4519 -9.20087 -0 -0 8.71268 -4.93258e-06 17.3423 1.99178 0.621894 -7.64967e-06 -24.9698 
